<?xml version="1.0" encoding="UTF-8" standalone="no"?>
<!-- Created with Inkscape (http://www.inkscape.org/) -->

<svg
   xmlns:dc="http://purl.org/dc/elements/1.1/"
   xmlns:cc="http://creativecommons.org/ns#"
   xmlns:rdf="http://www.w3.org/1999/02/22-rdf-syntax-ns#"
   xmlns:svg="http://www.w3.org/2000/svg"
   xmlns="http://www.w3.org/2000/svg"
   xmlns:sodipodi="http://sodipodi.sourceforge.net/DTD/sodipodi-0.dtd"
   xmlns:inkscape="http://www.inkscape.org/namespaces/inkscape"
   width="10.5mm"
   height="10.25mm"
   viewBox="0 0 10.5 10.25"
   version="1.1"
   id="svg8"
   sodipodi:docname="fb.svg"
   inkscape:version="0.92.3 (2405546, 2018-03-11)">
  <defs
     id="defs2" />
  <sodipodi:namedview
     id="base"
     pagecolor="#ffffff"
     bordercolor="#666666"
     borderopacity="1.0"
     inkscape:pageopacity="0.0"
     inkscape:pageshadow="2"
     inkscape:zoom="3.959798"
     inkscape:cx="-73.303013"
     inkscape:cy="9.8368175"
     inkscape:document-units="mm"
     inkscape:current-layer="layer2"
     showgrid="false"
     inkscape:window-width="1853"
     inkscape:window-height="1025"
     inkscape:window-x="67"
     inkscape:window-y="27"
     inkscape:window-maximized="1" />
  <metadata
     id="metadata5">
    <rdf:RDF>
      <cc:Work
         rdf:about="">
        <dc:format>image/svg+xml</dc:format>
        <dc:type
           rdf:resource="http://purl.org/dc/dcmitype/StillImage" />
        <dc:title />
      </cc:Work>
    </rdf:RDF>
  </metadata>
  <g
     inkscape:groupmode="layer"
     id="layer2"
     inkscape:label="Layer 2">
    <ellipse
       style="fill:#ffffff;fill-opacity:1;stroke:none;stroke-width:0.29904541;stroke-opacity:0.82110087"
       id="path825"
       cx="5.1272931"
       cy="5.1220231"
       rx="5.026432"
       ry="5.0174961" />
  </g>
  <g
     inkscape:label="Layer 1"
     inkscape:groupmode="layer"
     id="layer1"
     transform="translate(0,-286.75)">
    <g
       id="Icons"
       transform="matrix(0.30470706,0,0,0.30470706,-2.1901433,284.56391)">
      <g
         id="Icons_4_">
        <g
           id="g1699">
          <path
             id="path1697"
             style="fill:#3b5998"
             d="m 24.00505,8.65502 c -8.4801,0 -15.3501,6.87 -15.3501,15.34 0,8.48 6.87,15.35 15.3501,15.35 8.47,0 15.34,-6.87 15.34,-15.35 -1e-4,-8.47 -6.87,-15.34 -15.34,-15.34 z m 5.8199,8.64 c 0,0 -0.5,-0.02 -2.2199,0 -1.68,0.02 -1.7001,1.28 -1.7001,1.34 l -0.02,3.19 3.94,0.08 -0.5799,4.07 h -3.3401 l -0.0999,8.61 h -4.05 l -0.1201,-8.59 -3.55,-0.02 0.0901,-4.15 h 3.5 v -3 c 0.01,-0.32 0.0399,-0.64 0.08,-0.96 0.0899,-0.7 0.2799,-1.4 0.61,-2.03 0.2899,-0.54 0.69,-1.02 1.18,-1.39 0.5,-0.38 1.0899,-0.64 1.7,-0.8 0.43,-0.12 0.87,-0.2 1.31,-0.21 0.57,-0.02 2.81,0.05 3.37,0.06 z"
             inkscape:connector-curvature="0" />
        </g>
      </g>
    </g>
  </g>
</svg>
