<?xml version="1.0" encoding="UTF-8" standalone="no"?>
<!-- Created with Inkscape (http://www.inkscape.org/) -->

<svg
   xmlns:dc="http://purl.org/dc/elements/1.1/"
   xmlns:cc="http://creativecommons.org/ns#"
   xmlns:rdf="http://www.w3.org/1999/02/22-rdf-syntax-ns#"
   xmlns:svg="http://www.w3.org/2000/svg"
   xmlns="http://www.w3.org/2000/svg"
   xmlns:sodipodi="http://sodipodi.sourceforge.net/DTD/sodipodi-0.dtd"
   xmlns:inkscape="http://www.inkscape.org/namespaces/inkscape"
   width="10.5mm"
   height="10.25mm"
   viewBox="0 0 10.5 10.25"
   version="1.1"
   id="svg8"
   sodipodi:docname="tw.svg"
   inkscape:version="0.92.3 (2405546, 2018-03-11)">
  <defs
     id="defs2" />
  <sodipodi:namedview
     id="base"
     pagecolor="#ffffff"
     bordercolor="#666666"
     borderopacity="1.0"
     inkscape:pageopacity="0.0"
     inkscape:pageshadow="2"
     inkscape:zoom="11.2"
     inkscape:cx="14.066719"
     inkscape:cy="15.287365"
     inkscape:document-units="mm"
     inkscape:current-layer="layer1"
     showgrid="false"
     inkscape:window-width="1853"
     inkscape:window-height="1025"
     inkscape:window-x="67"
     inkscape:window-y="27"
     inkscape:window-maximized="1" />
  <metadata
     id="metadata5">
    <rdf:RDF>
      <cc:Work
         rdf:about="">
        <dc:format>image/svg+xml</dc:format>
        <dc:type
           rdf:resource="http://purl.org/dc/dcmitype/StillImage" />
        <dc:title />
      </cc:Work>
    </rdf:RDF>
  </metadata>
  <g
     inkscape:label="Layer 1"
     inkscape:groupmode="layer"
     id="layer1"
     transform="translate(0,-286.75)">
    <ellipse
       style="fill:#ffffff;fill-opacity:1;stroke:none;stroke-width:0.29627451;stroke-opacity:0.82110087"
       id="path825"
       cx="5.3625374"
       cy="291.81464"
       rx="4.9798579"
       ry="4.971005" />
    <g
       id="Icons-0"
       transform="matrix(0.30188371,0,0,0.30188371,-1.8641178,284.53932)">
      <g
         id="Icons_13_">
        <g
           id="g1662">
          <path
             id="path1660"
             style="fill:#4aa0ec"
             d="m 24,8.655 c -8.47,0 -15.34,6.87 -15.34,15.35 0,8.47 6.87,15.34 15.34,15.34 8.4699,0 15.34,-6.87 15.34,-15.34 0,-8.48 -6.87,-15.35 -15.34,-15.35 z m 8.18,11.16 c 0,0 -0.03,1.88 -0.31,3.06 -0.28,1.17 -1.22,4.44 -4.02,6.74 -2.8,2.3 -6.22,2.8 -8.16,2.67 -1.93,-0.13 -4.31,-0.87 -5.84,-1.82 0,0 3.51,0.38 6.1,-1.76 0,0 -2.62,0.12 -3.86,-2.89 0,0 0.89,0.16 1.86,-0.11 0,0 -3.3,-0.6 -3.34,-4.15 0,0 1.08,0.53 1.88,0.48 0,0 -3.15,-2.41 -1.23,-5.52 0,0 3.1499,4.18 8.63,4.34 -1.33,-3.67 4.63,-7.1499 7.0799,-3.81 0,0 0.9501,-0.03 2.69,-0.97 0,0 -0.4199,1.32 -1.75,2.2 0,0 1,-0.01 2.2301,-0.54 -0.09,0.14 -0.84,1.29 -1.96,2.08 z"
             inkscape:connector-curvature="0" />
        </g>
      </g>
    </g>
  </g>
</svg>
